<svg xmlns="http://www.w3.org/2000/svg" viewBox="0 0 64 64">
  <rect width="64" height="64" rx="14" fill="#54be96"/>
  <path fill="#fbfbfb" d="M32 12C21 12 12 19.6 12 29c0 5.3 2.9 10 7.4 13.1-.3 2.5-1.3 5.3-3.3 7.6-.4.45-.05 1.2.55 1.15 4.35-.35 7.9-2.1 10.35-3.9 1.6.35 3.25.55 5 .55 11 0 20-7.6 20-18.5S43 12 32 12z"/>
  <path fill="#54be96" d="M32 39l-1.4-1.27c-5-4.53-8.2-7.43-8.2-10.93 0-2.9 2.27-5.2 5.2-5.2 1.64 0 3.22.77 4.4 1.98 1.18-1.21 2.76-1.98 4.4-1.98 2.93 0 5.2 2.3 5.2 5.2 0 3.5-3.2 6.4-8.2 10.93L32 39z"/>
</svg>
